<?xml version="1.0" standalone="no"?>
<!DOCTYPE svg PUBLIC "-//W3C//DTD SVG 20010904//EN"
 "http://www.w3.org/TR/2001/REC-SVG-20010904/DTD/svg10.dtd">
<svg version="1.0" xmlns="http://www.w3.org/2000/svg"
 width="1920.000000pt" height="1920.000000pt" viewBox="0 0 1920.000000 1920.000000"
 preserveAspectRatio="xMidYMid meet">

<g transform="translate(0.000000,1920.000000) scale(0.100000,-0.100000)"
fill="#000000" stroke="none">
<path d="M5805 12804 c-27 -2 -507 -8 -1065 -15 -558 -6 -1109 -15 -1225 -18
l-210 -7 677 -679 678 -680 1167 -3 1168 -4 85 -32 c160 -59 281 -166 357
-312 64 -122 87 -216 87 -354 0 -208 -64 -369 -199 -506 -83 -85 -174 -139
-275 -164 -26 -7 -199 -14 -405 -19 -343 -7 -362 -8 -410 -30 -95 -42 -123
-95 -89 -167 33 -70 998 -1028 1110 -1103 58 -38 90 -39 186 -5 122 43 465
217 593 301 521 343 825 793 890 1317 70 566 -81 1146 -438 1681 -204 306
-508 519 -934 655 -202 65 -511 124 -732 140 -109 8 -875 11 -1016 4z"/>
<path d="M1515 12754 c-511 -7 -1041 -17 -1178 -21 -230 -8 -249 -10 -268 -29
-11 -12 -21 -35 -21 -53 -1 -39 -37 -1 672 -713 l535 -538 1372 0 c755 0 1373
3 1373 8 0 4 -305 312 -678 685 l-677 677 -100 -1 c-55 -1 -518 -8 -1030 -15z"/>
<path d="M15987 11849 c-422 -33 -729 -243 -802 -550 -19 -82 -19 -246 0 -327
16 -68 53 -148 94 -201 36 -47 162 -146 230 -180 77 -39 270 -100 491 -156
340 -85 430 -119 512 -193 54 -49 78 -102 78 -177 0 -77 -24 -128 -84 -183
-95 -87 -221 -122 -440 -122 -76 0 -172 7 -227 16 -171 29 -371 107 -497 193
-34 22 -65 41 -70 41 -5 0 -42 -75 -83 -166 l-73 -167 39 -33 c57 -47 214
-127 324 -163 51 -17 150 -43 220 -58 116 -25 145 -27 356 -27 257 0 345 12
500 73 206 79 365 223 430 388 64 163 58 371 -15 519 -38 77 -159 196 -255
250 -91 50 -274 111 -521 173 -339 85 -427 118 -506 189 -85 77 -103 189 -47
300 56 114 169 171 376 192 221 23 466 -26 685 -136 48 -24 89 -40 92 -36 2 4
34 81 71 170 76 189 82 166 -50 230 -159 78 -346 125 -568 142 -73 5 -136 9
-142 9 -5 -1 -59 -6 -118 -10z"/>
<path d="M10240 10621 l0 -1201 220 0 220 0 0 350 0 350 323 0 322 -1 243
-349 244 -350 234 0 c129 0 234 3 234 6 0 4 -118 176 -263 383 -145 207 -266
381 -270 388 -5 8 17 24 65 48 161 79 277 193 353 350 61 127 80 219 79 385
-2 150 -21 245 -74 357 -108 231 -320 383 -635 456 -85 19 -127 21 -692 24
l-603 4 0 -1200z m1175 805 c81 -19 196 -71 244 -112 85 -71 141 -208 141
-342 0 -194 -85 -340 -243 -416 -120 -58 -183 -66 -552 -66 l-325 0 0 473 c0
261 3 477 8 481 4 5 153 6 332 3 243 -4 343 -9 395 -21z"/>
<path d="M13481 11801 c-9 -16 -1054 -2335 -1068 -2368 -4 -10 45 -13 225 -13
l229 0 119 280 119 280 596 0 c466 0 599 -3 606 -12 5 -7 61 -133 124 -280
l114 -268 233 0 c128 0 231 3 229 8 -2 4 -246 544 -542 1200 l-538 1192 -218
0 c-204 0 -219 -1 -228 -19z m455 -958 c118 -273 214 -500 214 -505 0 -4 -201
-8 -446 -8 -404 0 -446 1 -440 16 3 9 104 243 223 521 164 383 218 501 225
488 5 -9 106 -239 224 -512z"/>
<path d="M17130 11635 l0 -185 398 -2 397 -3 3 -1012 2 -1013 220 0 220 0 2
1013 3 1012 398 3 397 2 0 185 0 185 -1020 0 -1020 0 0 -185z"/>
<path d="M5348 9920 c-73 -48 -799 -753 -859 -834 -60 -81 -157 26 1128 -1256
637 -635 1212 -1204 1278 -1264 66 -60 139 -118 162 -128 36 -16 85 -21 291
-29 324 -14 1282 -6 1336 11 78 24 121 101 96 174 -8 25 -144 170 -494 528
-684 697 -2774 2781 -2816 2807 -47 28 -68 27 -122 -9z"/>
<path d="M3132 9679 c-42 -16 -832 -838 -887 -922 -10 -17 -14 -34 -10 -49 4
-13 410 -425 903 -917 912 -909 1296 -1283 1363 -1328 33 -22 53 -25 200 -35
90 -6 459 -11 819 -12 595 -1 658 1 692 16 52 23 78 70 78 138 l0 56 -1522
1521 c-1149 1147 -1530 1523 -1553 1528 -16 4 -37 8 -45 10 -8 2 -26 -1 -38
-6z"/>
<path d="M12935 8585 c-314 -58 -555 -276 -631 -570 -28 -107 -26 -315 4 -419
75 -262 290 -474 547 -541 229 -59 473 -33 665 72 182 99 318 271 372 472 28
103 30 316 4 411 -85 309 -317 520 -632 575 -104 18 -233 18 -329 0z m329
-201 c410 -100 571 -612 301 -956 -52 -67 -168 -147 -256 -178 -89 -30 -258
-38 -354 -16 -208 49 -361 189 -431 396 -29 85 -27 282 4 371 106 307 407 463
736 383z"/>
<path d="M10300 7810 l0 -770 105 0 105 0 2 557 3 557 275 -460 276 -459 54 0
54 0 275 463 276 463 3 -561 2 -560 105 0 105 0 0 770 0 770 -92 0 -93 -1
-315 -539 c-173 -296 -317 -537 -320 -534 -3 3 -147 245 -321 537 l-315 532
-92 3 -92 3 0 -771z"/>
<path d="M14260 7809 l0 -770 453 3 c429 4 456 5 532 26 156 43 254 115 304
222 23 49 26 67 26 170 0 104 -3 121 -27 172 -35 75 -104 142 -183 180 l-65
30 48 32 c63 44 127 139 142 213 42 201 -50 373 -240 447 -102 40 -175 46
-591 46 l-399 0 0 -771z m845 573 c76 -28 124 -66 153 -123 19 -37 23 -56 20
-116 -4 -92 -38 -145 -118 -185 -82 -42 -138 -48 -421 -48 l-259 0 0 251 0
251 283 -4 c257 -4 287 -7 342 -26z m50 -667 c134 -35 205 -116 205 -233 0
-118 -49 -191 -155 -233 -58 -23 -71 -24 -392 -27 l-333 -3 0 255 0 256 308 0
c244 0 320 -3 367 -15z"/>
<path d="M15930 7810 l0 -770 110 0 110 0 0 770 0 770 -110 0 -110 0 0 -770z"/>
<path d="M16610 7810 l0 -770 525 0 525 0 0 95 0 95 -415 0 -415 0 0 675 0
675 -110 0 -110 0 0 -770z"/>
<path d="M17920 7810 l0 -770 560 0 560 0 0 95 0 95 -450 0 -450 0 0 250 0
250 385 0 385 0 0 95 0 95 -385 0 -385 0 0 235 0 235 433 2 432 3 3 93 3 92
-546 0 -545 0 0 -770z"/>
<path d="M1851 8393 c-34 -7 -137 -105 -1075 -1028 -578 -568 -708 -703 -733
-763 -19 -45 -8 -115 24 -153 l25 -29 848 0 848 0 83 73 c131 115 905 888 928
927 31 52 28 108 -10 161 -46 65 -708 710 -804 785 -31 24 -91 36 -134 27z"/>
</g>
</svg>
